<mxfile host="app.diagrams.net" modified="2023-05-24T08:50:40.989Z" agent="Mozilla/5.0 (Windows NT 10.0; Win64; x64) AppleWebKit/537.36 (KHTML, like Gecko) Chrome/109.0.0.0 Safari/537.36" etag="d-EpSFQ_LFanG5Bpqhk1" version="21.3.3" type="device">
  <diagram name="페이지-1" id="plPxCR7A4Ch7sflbCF2s">
    <mxGraphModel dx="1195" dy="1806" grid="1" gridSize="10" guides="1" tooltips="1" connect="1" arrows="1" fold="1" page="1" pageScale="1" pageWidth="827" pageHeight="1169" math="0" shadow="0">
      <root>
        <mxCell id="0" />
        <mxCell id="1" parent="0" />
        <mxCell id="CIPY2-EoG18A_BjdCyHG-23" value="" style="edgeStyle=orthogonalEdgeStyle;rounded=0;orthogonalLoop=1;jettySize=auto;html=1;" edge="1" parent="1" source="CIPY2-EoG18A_BjdCyHG-1" target="CIPY2-EoG18A_BjdCyHG-5">
          <mxGeometry relative="1" as="geometry" />
        </mxCell>
        <mxCell id="CIPY2-EoG18A_BjdCyHG-1" value="로딩" style="rounded=0;whiteSpace=wrap;html=1;" vertex="1" parent="1">
          <mxGeometry x="344" y="-1140" width="140" height="40" as="geometry" />
        </mxCell>
        <mxCell id="CIPY2-EoG18A_BjdCyHG-4" value="로그인" style="rounded=0;whiteSpace=wrap;html=1;" vertex="1" parent="1">
          <mxGeometry x="344" y="-1080" width="140" height="40" as="geometry" />
        </mxCell>
        <mxCell id="CIPY2-EoG18A_BjdCyHG-24" value="" style="edgeStyle=orthogonalEdgeStyle;rounded=0;orthogonalLoop=1;jettySize=auto;html=1;shape=link;" edge="1" parent="1" source="CIPY2-EoG18A_BjdCyHG-5" target="CIPY2-EoG18A_BjdCyHG-6">
          <mxGeometry relative="1" as="geometry" />
        </mxCell>
        <mxCell id="CIPY2-EoG18A_BjdCyHG-25" value="" style="edgeStyle=orthogonalEdgeStyle;rounded=0;orthogonalLoop=1;jettySize=auto;html=1;shape=link;" edge="1" parent="1" source="CIPY2-EoG18A_BjdCyHG-5" target="CIPY2-EoG18A_BjdCyHG-7">
          <mxGeometry relative="1" as="geometry" />
        </mxCell>
        <mxCell id="CIPY2-EoG18A_BjdCyHG-5" value="OCR 처리요청" style="rounded=0;whiteSpace=wrap;html=1;" vertex="1" parent="1">
          <mxGeometry x="344" y="-1020" width="140" height="40" as="geometry" />
        </mxCell>
        <mxCell id="CIPY2-EoG18A_BjdCyHG-6" value="DASHBOARD" style="rounded=0;whiteSpace=wrap;html=1;" vertex="1" parent="1">
          <mxGeometry x="134" y="-1020" width="140" height="40" as="geometry" />
        </mxCell>
        <mxCell id="CIPY2-EoG18A_BjdCyHG-7" value="OCR 처리결과" style="rounded=0;whiteSpace=wrap;html=1;" vertex="1" parent="1">
          <mxGeometry x="554" y="-1020" width="140" height="40" as="geometry" />
        </mxCell>
        <mxCell id="CIPY2-EoG18A_BjdCyHG-8" value="문서 조회" style="rounded=0;whiteSpace=wrap;html=1;" vertex="1" parent="1">
          <mxGeometry x="344" y="-980" width="140" height="40" as="geometry" />
        </mxCell>
        <mxCell id="CIPY2-EoG18A_BjdCyHG-9" value="OCR 파일업로드" style="rounded=0;whiteSpace=wrap;html=1;" vertex="1" parent="1">
          <mxGeometry x="344" y="-940" width="140" height="40" as="geometry" />
        </mxCell>
        <mxCell id="CIPY2-EoG18A_BjdCyHG-10" value="서식정의 - 1" style="rounded=0;whiteSpace=wrap;html=1;fillColor=#bac8d3;strokeColor=#23445d;" vertex="1" parent="1">
          <mxGeometry x="40" y="-750" width="140" height="40" as="geometry" />
        </mxCell>
        <mxCell id="CIPY2-EoG18A_BjdCyHG-11" value="파일 업로드 (2개 이상)" style="rounded=0;whiteSpace=wrap;html=1;" vertex="1" parent="1">
          <mxGeometry x="40" y="-710" width="140" height="40" as="geometry" />
        </mxCell>
        <mxCell id="CIPY2-EoG18A_BjdCyHG-12" value="분석요청" style="rounded=0;whiteSpace=wrap;html=1;" vertex="1" parent="1">
          <mxGeometry x="40" y="-640" width="140" height="40" as="geometry" />
        </mxCell>
        <mxCell id="CIPY2-EoG18A_BjdCyHG-13" value="서식 정의할 페이지 체크" style="rounded=0;whiteSpace=wrap;html=1;" vertex="1" parent="1">
          <mxGeometry x="40" y="-570" width="140" height="40" as="geometry" />
        </mxCell>
        <mxCell id="CIPY2-EoG18A_BjdCyHG-14" value="" style="endArrow=classic;html=1;rounded=0;exitX=0.5;exitY=1;exitDx=0;exitDy=0;entryX=0.5;entryY=0;entryDx=0;entryDy=0;" edge="1" parent="1" source="CIPY2-EoG18A_BjdCyHG-11" target="CIPY2-EoG18A_BjdCyHG-12">
          <mxGeometry width="50" height="50" relative="1" as="geometry">
            <mxPoint x="390" y="-750" as="sourcePoint" />
            <mxPoint x="440" y="-800" as="targetPoint" />
          </mxGeometry>
        </mxCell>
        <mxCell id="CIPY2-EoG18A_BjdCyHG-16" value="" style="endArrow=classic;html=1;rounded=0;exitX=0.5;exitY=1;exitDx=0;exitDy=0;entryX=0.5;entryY=0;entryDx=0;entryDy=0;" edge="1" parent="1" source="CIPY2-EoG18A_BjdCyHG-12" target="CIPY2-EoG18A_BjdCyHG-13">
          <mxGeometry width="50" height="50" relative="1" as="geometry">
            <mxPoint x="120" y="-660" as="sourcePoint" />
            <mxPoint x="120" y="-630" as="targetPoint" />
          </mxGeometry>
        </mxCell>
        <mxCell id="CIPY2-EoG18A_BjdCyHG-17" value="성공 시" style="text;html=1;strokeColor=none;fillColor=none;align=center;verticalAlign=middle;whiteSpace=wrap;rounded=0;" vertex="1" parent="1">
          <mxGeometry x="110" y="-600" width="60" height="30" as="geometry" />
        </mxCell>
        <mxCell id="CIPY2-EoG18A_BjdCyHG-29" value="" style="edgeStyle=orthogonalEdgeStyle;rounded=0;orthogonalLoop=1;jettySize=auto;html=1;entryX=0;entryY=0.5;entryDx=0;entryDy=0;exitX=1;exitY=0.5;exitDx=0;exitDy=0;dashed=1;dashPattern=1 4;" edge="1" parent="1" source="CIPY2-EoG18A_BjdCyHG-13" target="CIPY2-EoG18A_BjdCyHG-26">
          <mxGeometry relative="1" as="geometry">
            <mxPoint x="330" y="-480" as="targetPoint" />
          </mxGeometry>
        </mxCell>
        <mxCell id="CIPY2-EoG18A_BjdCyHG-21" value="정의 중이던 페이지 이동" style="rounded=0;whiteSpace=wrap;html=1;" vertex="1" parent="1">
          <mxGeometry x="40" y="-500" width="140" height="40" as="geometry" />
        </mxCell>
        <mxCell id="CIPY2-EoG18A_BjdCyHG-22" value="OR" style="text;html=1;strokeColor=none;fillColor=none;align=center;verticalAlign=middle;whiteSpace=wrap;rounded=0;" vertex="1" parent="1">
          <mxGeometry x="80" y="-530" width="60" height="30" as="geometry" />
        </mxCell>
        <mxCell id="CIPY2-EoG18A_BjdCyHG-26" value="서식정의 - 2" style="rounded=0;whiteSpace=wrap;html=1;fillColor=#bac8d3;strokeColor=#23445d;" vertex="1" parent="1">
          <mxGeometry x="270" y="-750" width="140" height="40" as="geometry" />
        </mxCell>
        <mxCell id="CIPY2-EoG18A_BjdCyHG-27" value="키 정의 / 추가 / 삭제" style="rounded=0;whiteSpace=wrap;html=1;" vertex="1" parent="1">
          <mxGeometry x="270" y="-670" width="140" height="40" as="geometry" />
        </mxCell>
        <mxCell id="CIPY2-EoG18A_BjdCyHG-32" value="키워드&lt;br&gt;추천" style="text;html=1;strokeColor=none;fillColor=none;align=center;verticalAlign=middle;whiteSpace=wrap;rounded=0;" vertex="1" parent="1">
          <mxGeometry x="220" y="-580" width="60" height="30" as="geometry" />
        </mxCell>
        <mxCell id="CIPY2-EoG18A_BjdCyHG-33" value="템플릿 선택" style="rounded=0;whiteSpace=wrap;html=1;" vertex="1" parent="1">
          <mxGeometry x="270" y="-710" width="140" height="40" as="geometry" />
        </mxCell>
        <mxCell id="CIPY2-EoG18A_BjdCyHG-34" value="키 관련 정보 수정" style="rounded=0;whiteSpace=wrap;html=1;" vertex="1" parent="1">
          <mxGeometry x="270" y="-630" width="140" height="40" as="geometry" />
        </mxCell>
        <mxCell id="CIPY2-EoG18A_BjdCyHG-35" value="" style="edgeStyle=orthogonalEdgeStyle;rounded=0;orthogonalLoop=1;jettySize=auto;html=1;exitX=1;exitY=0.5;exitDx=0;exitDy=0;dashed=1;dashPattern=1 4;entryX=0;entryY=0.5;entryDx=0;entryDy=0;" edge="1" parent="1" source="CIPY2-EoG18A_BjdCyHG-26" target="CIPY2-EoG18A_BjdCyHG-36">
          <mxGeometry relative="1" as="geometry">
            <mxPoint x="420" y="-725.5" as="sourcePoint" />
            <mxPoint x="490" y="-735.5" as="targetPoint" />
            <Array as="points">
              <mxPoint x="470" y="-730" />
              <mxPoint x="470" y="-730" />
            </Array>
          </mxGeometry>
        </mxCell>
        <mxCell id="CIPY2-EoG18A_BjdCyHG-36" value="서식정의 - 3" style="rounded=0;whiteSpace=wrap;html=1;fillColor=#bac8d3;strokeColor=#23445d;" vertex="1" parent="1">
          <mxGeometry x="480" y="-750" width="140" height="40" as="geometry" />
        </mxCell>
        <mxCell id="CIPY2-EoG18A_BjdCyHG-37" value="영역 정의" style="rounded=0;whiteSpace=wrap;html=1;" vertex="1" parent="1">
          <mxGeometry x="480" y="-710" width="140" height="40" as="geometry" />
        </mxCell>
        <mxCell id="CIPY2-EoG18A_BjdCyHG-38" value="영역 관련 정보 수정" style="rounded=0;whiteSpace=wrap;html=1;" vertex="1" parent="1">
          <mxGeometry x="480" y="-670" width="140" height="40" as="geometry" />
        </mxCell>
        <mxCell id="CIPY2-EoG18A_BjdCyHG-39" value="" style="edgeStyle=orthogonalEdgeStyle;rounded=0;orthogonalLoop=1;jettySize=auto;html=1;exitX=1;exitY=0.5;exitDx=0;exitDy=0;dashed=1;dashPattern=1 4;entryX=0;entryY=0.5;entryDx=0;entryDy=0;" edge="1" parent="1" target="CIPY2-EoG18A_BjdCyHG-40">
          <mxGeometry relative="1" as="geometry">
            <mxPoint x="620" y="-730" as="sourcePoint" />
            <mxPoint x="700" y="-735.5" as="targetPoint" />
            <Array as="points">
              <mxPoint x="680" y="-730" />
              <mxPoint x="680" y="-730" />
            </Array>
          </mxGeometry>
        </mxCell>
        <mxCell id="CIPY2-EoG18A_BjdCyHG-40" value="서식정의 - 4" style="rounded=0;whiteSpace=wrap;html=1;fillColor=#bac8d3;strokeColor=#23445d;" vertex="1" parent="1">
          <mxGeometry x="690" y="-750" width="140" height="40" as="geometry" />
        </mxCell>
        <mxCell id="CIPY2-EoG18A_BjdCyHG-41" value="서식 태그 수정" style="rounded=0;whiteSpace=wrap;html=1;" vertex="1" parent="1">
          <mxGeometry x="690" y="-710" width="140" height="40" as="geometry" />
        </mxCell>
        <mxCell id="CIPY2-EoG18A_BjdCyHG-42" value="OCR 인식 결과 검증" style="rounded=0;whiteSpace=wrap;html=1;" vertex="1" parent="1">
          <mxGeometry x="690" y="-670" width="140" height="40" as="geometry" />
        </mxCell>
        <mxCell id="CIPY2-EoG18A_BjdCyHG-46" style="edgeStyle=orthogonalEdgeStyle;rounded=0;orthogonalLoop=1;jettySize=auto;html=1;entryX=0.5;entryY=0;entryDx=0;entryDy=0;" edge="1" parent="1" source="CIPY2-EoG18A_BjdCyHG-43" target="CIPY2-EoG18A_BjdCyHG-45">
          <mxGeometry relative="1" as="geometry" />
        </mxCell>
        <mxCell id="CIPY2-EoG18A_BjdCyHG-43" value="확인" style="rounded=0;whiteSpace=wrap;html=1;" vertex="1" parent="1">
          <mxGeometry x="690" y="-610" width="140" height="40" as="geometry" />
        </mxCell>
        <mxCell id="CIPY2-EoG18A_BjdCyHG-44" value="" style="endArrow=classic;html=1;rounded=0;entryX=0.5;entryY=0;entryDx=0;entryDy=0;" edge="1" parent="1" target="CIPY2-EoG18A_BjdCyHG-43">
          <mxGeometry width="50" height="50" relative="1" as="geometry">
            <mxPoint x="760" y="-630" as="sourcePoint" />
            <mxPoint x="810" y="-680" as="targetPoint" />
          </mxGeometry>
        </mxCell>
        <mxCell id="CIPY2-EoG18A_BjdCyHG-45" value="페이지 추가 정의" style="rounded=0;whiteSpace=wrap;html=1;" vertex="1" parent="1">
          <mxGeometry x="690" y="-550" width="140" height="40" as="geometry" />
        </mxCell>
        <mxCell id="CIPY2-EoG18A_BjdCyHG-48" value="YES" style="text;html=1;strokeColor=none;fillColor=none;align=center;verticalAlign=middle;whiteSpace=wrap;rounded=0;" vertex="1" parent="1">
          <mxGeometry x="384" y="-420" width="60" height="30" as="geometry" />
        </mxCell>
        <mxCell id="CIPY2-EoG18A_BjdCyHG-49" value="" style="edgeStyle=orthogonalEdgeStyle;rounded=0;orthogonalLoop=1;jettySize=auto;html=1;exitX=0.5;exitY=1;exitDx=0;exitDy=0;dashed=1;dashPattern=1 4;entryX=0.5;entryY=0;entryDx=0;entryDy=0;" edge="1" parent="1" source="CIPY2-EoG18A_BjdCyHG-45" target="CIPY2-EoG18A_BjdCyHG-10">
          <mxGeometry relative="1" as="geometry">
            <mxPoint x="630" y="-720" as="sourcePoint" />
            <mxPoint x="700" y="-720" as="targetPoint" />
            <Array as="points">
              <mxPoint x="760" y="-390" />
              <mxPoint x="20" y="-390" />
              <mxPoint x="20" y="-810" />
              <mxPoint x="110" y="-810" />
            </Array>
          </mxGeometry>
        </mxCell>
        <mxCell id="CIPY2-EoG18A_BjdCyHG-50" value="" style="edgeStyle=orthogonalEdgeStyle;rounded=0;orthogonalLoop=1;jettySize=auto;html=1;exitX=0.5;exitY=1;exitDx=0;exitDy=0;dashed=1;dashPattern=1 4;" edge="1" parent="1" source="CIPY2-EoG18A_BjdCyHG-45">
          <mxGeometry relative="1" as="geometry">
            <mxPoint x="630" y="-720" as="sourcePoint" />
            <mxPoint x="910" y="-840" as="targetPoint" />
            <Array as="points">
              <mxPoint x="830" y="-510" />
              <mxPoint x="830" y="-530" />
              <mxPoint x="910" y="-530" />
              <mxPoint x="910" y="-840" />
            </Array>
          </mxGeometry>
        </mxCell>
        <mxCell id="CIPY2-EoG18A_BjdCyHG-51" value="NO" style="text;html=1;strokeColor=none;fillColor=none;align=center;verticalAlign=middle;whiteSpace=wrap;rounded=0;" vertex="1" parent="1">
          <mxGeometry x="900" y="-680" width="60" height="30" as="geometry" />
        </mxCell>
      </root>
    </mxGraphModel>
  </diagram>
</mxfile>
